<svg width="39" height="39" viewBox="0 0 39 39" fill="none" xmlns="http://www.w3.org/2000/svg">
<path d="M35.7969 17.3125L32.625 14.1428V6.375C32.625 5.17187 31.6406 4.1875 30.4375 4.1875H28.25C27.0469 4.1875 26.0625 5.17187 26.0625 6.375V7.58469L21.6875 3.21406C21.0903 2.64969 20.5434 2 19.5 2C18.4566 2 17.9097 2.64969 17.3125 3.21406L3.20313 17.3125C2.52063 18.0234 2 18.5419 2 19.5C2 20.7316 2.945 21.6875 4.1875 21.6875H6.375V34.8125C6.375 36.0156 7.35937 37 8.5625 37H12.9375C14.1456 37 15.125 36.0206 15.125 34.8125V26.0625C15.125 24.8594 16.1094 23.875 17.3125 23.875H21.6875C22.8906 23.875 23.875 24.8594 23.875 26.0625V34.8125C23.875 36.0206 23.7606 37 24.9688 37H30.4375C31.6406 37 32.625 36.0156 32.625 34.8125V21.6875H34.8125C36.055 21.6875 37 20.7316 37 19.5C37 18.5419 36.4794 18.0234 35.7969 17.3125Z" stroke="white" stroke-width="4" stroke-linejoin="round"/>
</svg>
