<svg width="48" height="66" viewBox="0 0 48 66" fill="none" xmlns="http://www.w3.org/2000/svg">
<path d="M29.894 42.2597C29.815 42.4148 29.6574 42.5796 29.4212 42.7541C29.1105 43.0164 28.7111 43.2787 28.2229 43.541C27.7347 43.8033 27.2022 44.0656 26.6252 44.3279C26.0483 44.5464 25.5157 44.7432 25.0275 44.918C24.6281 44.8743 24.3174 44.8087 24.0955 44.7213C23.918 44.6339 23.7627 44.5027 23.6295 44.3279C23.4964 44.153 23.3633 43.9126 23.2301 43.6066C23.1414 43.3005 22.9638 42.9071 22.6976 42.4262C22.2537 42.2514 21.6546 42.2076 20.9001 42.2951C20.6674 42.3086 20.4474 42.5942 20.24 42.6451V43.1803L21.7711 46.1311L23.8348 50.5902L25.6322 51.7705L28.4282 53.0164L29.2936 52.5574L34.4196 53.9344L37.3487 54.459L37.9478 56.3607L33.9536 60.5574L30.7582 60.9508L21.1054 61.9344L20.5728 63.8361L21.3717 65.8033H28.6945C29.4489 65.8033 30.27 65.7159 31.1576 65.541C32.0452 65.3661 33.066 65.3661 34.2198 65.541L37.4818 66L42.8741 63.9016L46.136 62.2623L46.5354 59.5082L48 55.5738L47.6006 52.4262L47.4009 52.2295C47.4009 52.1858 47.3565 52.1202 47.2677 52.0328C47.0458 51.7705 46.6908 51.5082 46.2026 51.2459C45.7588 50.9836 45.2928 50.7213 44.8046 50.459C44.3608 50.1967 43.9392 49.9344 43.5398 49.6721C43.1847 49.4098 42.9406 49.1475 42.8075 48.8852L41.312 47.3298H38.5951L36.0838 47.6393L34.9028 47.0543L34.4196 45.8142L32.6887 44.7541L30.8247 44.4918L29.894 42.2597Z" fill="white"/>
<path d="M28.8221 39.4754L29.0883 38.4262L28.7773 35.2096C28.4316 35.2726 28.0489 35.3284 27.6293 35.377C26.8749 35.4645 26.2092 35.5519 25.6322 35.6393C25.0553 35.7268 24.5893 35.7924 24.2342 35.8361C24.0123 35.8798 23.8126 35.9235 23.6351 35.9672H23.1025L20.24 40.4918V42.6451C20.4474 42.5942 20.6674 42.3086 20.9001 42.2951C21.6546 42.2076 22.2537 42.2514 22.6976 42.4262C22.9638 42.9071 23.1414 43.3005 23.2301 43.6066C23.3633 43.9126 23.4964 44.153 23.6295 44.3279C23.7627 44.5027 23.918 44.6339 24.0955 44.7213C24.3174 44.8087 24.6281 44.8743 25.0275 44.918C25.5157 44.7432 26.0483 44.5464 26.6252 44.3279C27.2022 44.0656 27.7347 43.8033 28.2229 43.541C28.7111 43.2787 29.1105 43.0164 29.4212 42.7541C29.6574 42.5796 29.815 42.4148 29.894 42.2597L29.2936 40.8197L29.3357 40.7265C29.2999 40.6614 29.2618 40.5941 29.2215 40.5246L28.8221 39.4754Z" fill="white"/>
<path fill-rule="evenodd" clip-rule="evenodd" d="M25.2938 0L31.3518 0.393441L32.3503 1.77049C31.9953 2.46994 31.729 3.38798 31.5515 4.52459C31.3739 5.61749 31.2408 6.81967 31.152 8.13115C30.6195 12.0219 30.2201 15.4317 29.9538 18.3607C29.7319 21.2459 29.5543 23.694 29.4212 25.7049C29.2881 27.7158 29.1549 29.3115 29.0218 30.4918C28.933 31.6721 28.7777 32.4809 28.5558 32.918L28.7773 35.2096C28.4316 35.2726 28.0489 35.3284 27.6293 35.377C26.8749 35.4645 26.2092 35.5519 25.6322 35.6393C25.0553 35.7268 24.5893 35.7924 24.2342 35.8361C24.0123 35.8798 23.8126 35.9235 23.6351 35.9672H23.1025L20.24 40.4918V42.6451L17.039 44.3279L12.6096 45.1941L8.15094 44.918L7.31495 43.1803C7.03831 43.0635 6.58225 42.9749 6.12222 42.8855C5.54902 42.7741 4.96964 42.6616 4.72343 42.4918C4.32401 42.1421 3.96896 41.7924 3.6583 41.4426C3.34763 41.0492 3.05916 40.6995 2.79288 40.3934L0 35.4802V29.9016L0.766328 27.6721L2.08998 26.5929L2.32688 24.2623L4.59029 20.8525C4.72343 20.8525 4.96752 20.7432 5.32257 20.5246C5.67761 20.2623 6.09923 19.9781 6.58741 19.6721C7.0756 19.3224 7.60817 18.9945 8.18511 18.6885H11.6468L12.9782 17.5082C13.6439 17.4645 14.0433 17.4208 14.1765 17.377C14.4428 17.5519 14.7534 17.6831 15.1085 17.7705C15.4635 17.8579 15.7964 17.9454 16.107 18.0328C16.4621 18.0765 16.7506 18.1202 16.9725 18.1639L17.6255 18.2568L18.5312 19.2902L19.6353 19.6347L20.3425 19.0146L21.1089 18.3607L21.5269 17.2923L21.4993 15.8689C21.7212 15.3005 21.8543 14.8197 21.8987 14.4262C21.9875 13.9891 22.0097 13.5519 21.9653 13.1148C21.9653 12.9061 22.0659 12.7081 22.1664 12.5105C22.2763 12.2941 22.386 12.0782 22.3628 11.8497C22.3417 11.6207 22.5618 11.4987 22.7982 11.3675C23.0583 11.2233 23.3382 11.068 23.3382 10.7474L22.8973 8.13115L21.9653 6.09836L21.8987 3.27869L23.5472 1.58455L25.2938 0ZM20.3676 38.623L18.437 40.7869C17.8601 40.9618 17.3941 41.071 17.039 41.1148C16.7284 41.1585 16.4621 41.1803 16.2402 41.1803C16.0627 41.1366 15.8629 41.071 15.641 40.9836C15.4635 40.8525 15.2194 40.7213 14.9088 40.5902L12.9116 39.6721L10.5151 37.1148C9.805 36.765 9.27244 36.3279 8.91739 35.8033C8.56235 35.2787 8.42921 34.5792 8.51797 33.7049C8.38482 32.9618 8.29606 32.2842 8.25168 31.6721C8.2073 31.0601 8.22949 30.4699 8.31825 29.9016C8.40702 29.2896 8.56235 28.6995 8.78425 28.1311C9.05053 27.5628 9.40558 26.929 9.84938 26.2295L11.6468 24.2623L15.5079 23.2131L19.6353 24.918C20.5229 25.8361 20.9445 26.7541 20.9001 27.6721C20.8558 28.5464 20.8114 29.5519 20.767 30.6885C20.7226 31.8251 20.6782 32.918 20.6339 33.9672C20.6339 35.0164 20.656 35.694 20.7004 36L20.3676 38.623Z" fill="white"/>
<path d="M29.0883 38.4262L28.8221 39.4754L29.2215 40.5246C29.2618 40.5941 29.2999 40.6614 29.3357 40.7265L30.0925 39.0492L34.8856 37.541L39.2127 35.4426L42.5412 35.377L43.6729 34.5246L43.4066 32.3607L42.9406 31.8361H40.4775L36.1567 32.2422L31.6284 33.1378L28.7773 35.2096L29.0883 38.4262Z" fill="white"/>
</svg>
