<svg width="35" height="35" viewBox="0 0 35 35" fill="none" xmlns="http://www.w3.org/2000/svg">
<path d="M15.318 0L13.1359 5.19327C12.6995 5.32419 12.3067 5.54239 11.914 5.7606L6.7207 3.57855L3.57855 6.7207L5.7606 11.914C5.54239 12.3504 5.36783 12.6995 5.19327 13.1359L0 15.318V19.682L5.19327 21.8641C5.36783 22.3005 5.54239 22.6496 5.7606 23.086L3.57855 28.2793L6.7207 31.4214L11.914 29.2394C12.3067 29.414 12.6995 29.6322 13.1359 29.8067L15.318 35H19.682L21.8641 29.8067C22.2569 29.6322 22.6933 29.4576 23.086 29.2394L28.2793 31.4214L31.4214 28.2793L29.2394 23.086C29.414 22.6933 29.6322 22.2569 29.8067 21.8641L35 19.682V15.318L29.8067 13.1359C29.6758 12.7431 29.4576 12.3067 29.2394 11.914L31.4214 6.7207L28.2793 3.57855L23.086 5.7606C22.6933 5.58603 22.2569 5.36783 21.8641 5.19327L19.682 0L15.318 0ZM17.5 10.9102C21.1222 10.9102 24.0461 13.8342 24.0461 17.4564C24.0461 21.0786 21.1222 24.0025 17.5 24.0025C13.8778 24.0025 10.9539 21.0786 10.9539 17.4564C10.9539 13.8342 13.8778 10.9102 17.5 10.9102Z" fill="white"/>
</svg>
